<svg xmlns="http://www.w3.org/2000/svg" viewBox="0 0 400 400" shape-rendering="crispEdges">
  <defs>
    <style>
      @keyframes smoke {
        0%, 100% { transform: translateY(0); opacity: 0.9; }
        50% { transform: translateY(-2px); opacity: 0.45; }
      }
      .smoke { transform-origin: 5px 13px; animation: smoke 1.4s steps(3) infinite; }
    </style>
  </defs>
  <g transform="scale(10)">
    <rect width="40" height="34" fill="#1a2040"/>
    <rect y="34" width="40" height="6" fill="#121830"/>
    <g>
      <rect x="8" y="9" width="1" height="1" fill="#181828"/>
      <rect x="9" y="9" width="1" height="1" fill="#1a1830"/>
      <rect x="31" y="9" width="1" height="1" fill="#1a1830"/>
      <rect x="32" y="9" width="1" height="1" fill="#181828"/>
      <rect x="8" y="10" width="1" height="1" fill="#181828"/>
      <rect x="9" y="10" width="1" height="1" fill="#1a1830"/>
      <rect x="10" y="10" width="1" height="1" fill="#2a2848"/>
      <rect x="30" y="10" width="1" height="1" fill="#2a2848"/>
      <rect x="31" y="10" width="1" height="1" fill="#1a1830"/>
      <rect x="32" y="10" width="1" height="1" fill="#181828"/>
      <rect x="8" y="11" width="1" height="1" fill="#181828"/>
      <rect x="9" y="11" width="1" height="1" fill="#1a1830"/>
      <rect x="10" y="11" width="1" height="1" fill="#2a2848"/>
      <rect x="30" y="11" width="1" height="1" fill="#2a2848"/>
      <rect x="31" y="11" width="1" height="1" fill="#1a1830"/>
      <rect x="32" y="11" width="1" height="1" fill="#181828"/>
      <rect x="8" y="12" width="1" height="1" fill="#181828"/>
      <rect x="9" y="12" width="1" height="1" fill="#1a1830"/>
      <rect x="10" y="12" width="1" height="1" fill="#2a2848"/>
      <rect x="30" y="12" width="1" height="1" fill="#2a2848"/>
      <rect x="31" y="12" width="1" height="1" fill="#1a1830"/>
      <rect x="32" y="12" width="1" height="1" fill="#181828"/>
      <rect x="8" y="13" width="1" height="1" fill="#181828"/>
      <rect x="9" y="13" width="1" height="1" fill="#1a1830"/>
      <rect x="10" y="13" width="1" height="1" fill="#2a2848"/>
      <rect x="30" y="13" width="1" height="1" fill="#2a2848"/>
      <rect x="31" y="13" width="1" height="1" fill="#1a1830"/>
      <rect x="32" y="13" width="1" height="1" fill="#181828"/>
      <rect x="7" y="14" width="1" height="1" fill="#181828"/>
      <rect x="8" y="14" width="1" height="1" fill="#1a1830"/>
      <rect x="9" y="14" width="1" height="1" fill="#1a1830"/>
      <rect x="10" y="14" width="1" height="1" fill="#2a2848"/>
      <rect x="30" y="14" width="1" height="1" fill="#2a2848"/>
      <rect x="31" y="14" width="1" height="1" fill="#1a1830"/>
      <rect x="32" y="14" width="1" height="1" fill="#1a1830"/>
      <rect x="33" y="14" width="1" height="1" fill="#181828"/>
      <rect x="10" y="15" width="1" height="1" fill="#181828"/>
      <rect x="30" y="15" width="1" height="1" fill="#2a2848"/>
      <rect x="31" y="15" width="1" height="1" fill="#1a1830"/>
      <rect x="32" y="15" width="1" height="1" fill="#181828"/>
      <rect x="6" y="16" width="1" height="1" fill="#181828"/>
      <rect x="9" y="16" width="1" height="1" fill="#181828"/>
      <rect x="30" y="16" width="1" height="1" fill="#2a2848"/>
      <rect x="31" y="16" width="1" height="1" fill="#1a1830"/>
      <rect x="32" y="16" width="1" height="1" fill="#181828"/>
      <rect x="8" y="17" width="1" height="1" fill="#181828"/>
      <rect x="9" y="17" width="1" height="1" fill="#1a1830"/>
      <rect x="10" y="17" width="1" height="1" fill="#2a2848"/>
      <rect x="30" y="17" width="1" height="1" fill="#2a2848"/>
      <rect x="31" y="17" width="1" height="1" fill="#1a1830"/>
      <rect x="32" y="17" width="1" height="1" fill="#181828"/>
      <rect x="8" y="18" width="1" height="1" fill="#181828"/>
      <rect x="9" y="18" width="1" height="1" fill="#1a1830"/>
      <rect x="10" y="18" width="1" height="1" fill="#2a2848"/>
      <rect x="30" y="18" width="1" height="1" fill="#2a2848"/>
      <rect x="31" y="18" width="1" height="1" fill="#1a1830"/>
      <rect x="32" y="18" width="1" height="1" fill="#181828"/>
      <rect x="8" y="19" width="1" height="1" fill="#181828"/>
      <rect x="9" y="19" width="1" height="1" fill="#1a1830"/>
      <rect x="10" y="19" width="1" height="1" fill="#2a2848"/>
      <rect x="30" y="19" width="1" height="1" fill="#2a2848"/>
      <rect x="31" y="19" width="1" height="1" fill="#1a1830"/>
      <rect x="32" y="19" width="1" height="1" fill="#181828"/>
      <rect x="8" y="20" width="1" height="1" fill="#181828"/>
      <rect x="9" y="20" width="1" height="1" fill="#1a1830"/>
      <rect x="10" y="20" width="1" height="1" fill="#2a2848"/>
      <rect x="30" y="20" width="1" height="1" fill="#2a2848"/>
      <rect x="31" y="20" width="1" height="1" fill="#1a1830"/>
      <rect x="32" y="20" width="1" height="1" fill="#181828"/>
      <rect x="8" y="21" width="1" height="1" fill="#181828"/>
      <rect x="9" y="21" width="1" height="1" fill="#1a1830"/>
      <rect x="10" y="21" width="1" height="1" fill="#2a2848"/>
      <rect x="30" y="21" width="1" height="1" fill="#2a2848"/>
      <rect x="31" y="21" width="1" height="1" fill="#1a1830"/>
      <rect x="32" y="21" width="1" height="1" fill="#181828"/>
      <rect x="8" y="22" width="1" height="1" fill="#181828"/>
      <rect x="9" y="22" width="1" height="1" fill="#1a1830"/>
      <rect x="10" y="22" width="1" height="1" fill="#2a2848"/>
      <rect x="30" y="22" width="1" height="1" fill="#2a2848"/>
      <rect x="31" y="22" width="1" height="1" fill="#1a1830"/>
      <rect x="32" y="22" width="1" height="1" fill="#181828"/>
      <rect x="8" y="23" width="1" height="1" fill="#181828"/>
      <rect x="9" y="23" width="1" height="1" fill="#1a1830"/>
      <rect x="10" y="23" width="1" height="1" fill="#2a2848"/>
      <rect x="30" y="23" width="1" height="1" fill="#2a2848"/>
      <rect x="31" y="23" width="1" height="1" fill="#1a1830"/>
      <rect x="32" y="23" width="1" height="1" fill="#181828"/>
      <rect x="8" y="24" width="1" height="1" fill="#181828"/>
      <rect x="9" y="24" width="1" height="1" fill="#1a1830"/>
      <rect x="10" y="24" width="1" height="1" fill="#2a2848"/>
      <rect x="30" y="24" width="1" height="1" fill="#2a2848"/>
      <rect x="31" y="24" width="1" height="1" fill="#1a1830"/>
      <rect x="32" y="24" width="1" height="1" fill="#181828"/>
      <rect x="8" y="25" width="1" height="1" fill="#181828"/>
      <rect x="9" y="25" width="1" height="1" fill="#1a1830"/>
      <rect x="10" y="25" width="1" height="1" fill="#2a2848"/>
      <rect x="30" y="25" width="1" height="1" fill="#2a2848"/>
      <rect x="31" y="25" width="1" height="1" fill="#1a1830"/>
      <rect x="32" y="25" width="1" height="1" fill="#181828"/>
      <rect x="8" y="26" width="1" height="1" fill="#181828"/>
      <rect x="9" y="26" width="1" height="1" fill="#1a1830"/>
      <rect x="10" y="26" width="1" height="1" fill="#2a2848"/>
      <rect x="30" y="26" width="1" height="1" fill="#2a2848"/>
      <rect x="31" y="26" width="1" height="1" fill="#1a1830"/>
      <rect x="32" y="26" width="1" height="1" fill="#181828"/>
    </g>
    <g>
      <rect x="6" y="5" width="1" height="1" fill="#f0d878"/>
    </g>
    <g>
      <rect x="33" y="8" width="1" height="1" fill="#f0d878"/>
    </g>
    <g class="scene">
      <g class="smoke">
      <rect x="3" y="12" width="1" height="1" fill="#c8d8e8"/>
      <rect x="5" y="12" width="1" height="1" fill="#8898a8"/>
      <rect x="4" y="13" width="1" height="1" fill="#8898a8"/>
      <rect x="5" y="14" width="1" height="1" fill="#c8d8e8"/>
      </g>
      <g>
      <rect x="17" y="2" width="1" height="1" fill="#181828"/>
      <rect x="18" y="2" width="1" height="1" fill="#3a2848"/>
      <rect x="19" y="2" width="1" height="1" fill="#3a2848"/>
      <rect x="20" y="2" width="1" height="1" fill="#3a2848"/>
      <rect x="21" y="2" width="1" height="1" fill="#3a2848"/>
      <rect x="22" y="2" width="1" height="1" fill="#181828"/>
      <rect x="16" y="3" width="1" height="1" fill="#181828"/>
      <rect x="17" y="3" width="1" height="1" fill="#3a2848"/>
      <rect x="18" y="3" width="1" height="1" fill="#c0b0d8"/>
      <rect x="19" y="3" width="1" height="1" fill="#c0b0d8"/>
      <rect x="20" y="3" width="1" height="1" fill="#c0b0d8"/>
      <rect x="21" y="3" width="1" height="1" fill="#c0b0d8"/>
      <rect x="22" y="3" width="1" height="1" fill="#3a2848"/>
      <rect x="23" y="3" width="1" height="1" fill="#181828"/>
      <rect x="15" y="4" width="1" height="1" fill="#181828"/>
      <rect x="16" y="4" width="1" height="1" fill="#3a2848"/>
      <rect x="23" y="4" width="1" height="1" fill="#3a2848"/>
      <rect x="24" y="4" width="1" height="1" fill="#181828"/>
      <rect x="14" y="5" width="1" height="1" fill="#181828"/>
      <rect x="15" y="5" width="1" height="1" fill="#181828"/>
      <rect x="16" y="5" width="1" height="1" fill="#181828"/>
      <rect x="17" y="5" width="1" height="1" fill="#181828"/>
      <rect x="18" y="5" width="1" height="1" fill="#181828"/>
      <rect x="19" y="5" width="1" height="1" fill="#181828"/>
      <rect x="20" y="5" width="1" height="1" fill="#181828"/>
      <rect x="21" y="5" width="1" height="1" fill="#181828"/>
      <rect x="22" y="5" width="1" height="1" fill="#181828"/>
      <rect x="23" y="5" width="1" height="1" fill="#181828"/>
      <rect x="24" y="5" width="1" height="1" fill="#181828"/>
      <rect x="25" y="5" width="1" height="1" fill="#181828"/>
      <rect x="13" y="6" width="1" height="1" fill="#181828"/>
      <rect x="14" y="6" width="1" height="1" fill="#c0b0d8"/>
      <rect x="15" y="6" width="1" height="1" fill="#b8c8e8"/>
      <rect x="16" y="6" width="1" height="1" fill="#b8c8e8"/>
      <rect x="17" y="6" width="1" height="1" fill="#b8c8e8"/>
      <rect x="18" y="6" width="1" height="1" fill="#b8c8e8"/>
      <rect x="19" y="6" width="1" height="1" fill="#b8c8e8"/>
      <rect x="20" y="6" width="1" height="1" fill="#b8c8e8"/>
      <rect x="21" y="6" width="1" height="1" fill="#b8c8e8"/>
      <rect x="22" y="6" width="1" height="1" fill="#b8c8e8"/>
      <rect x="23" y="6" width="1" height="1" fill="#b8c8e8"/>
      <rect x="24" y="6" width="1" height="1" fill="#b8c8e8"/>
      <rect x="25" y="6" width="1" height="1" fill="#181828"/>
      <rect x="26" y="6" width="1" height="1" fill="#c0b0d8"/>
      <rect x="27" y="6" width="1" height="1" fill="#181828"/>
      <rect x="13" y="7" width="1" height="1" fill="#b8c8e8"/>
      <rect x="14" y="7" width="1" height="1" fill="#181828"/>
      <rect x="15" y="7" width="1" height="1" fill="#f8e040"/>
      <rect x="16" y="7" width="1" height="1" fill="#181828"/>
      <rect x="17" y="7" width="1" height="1" fill="#fffef8"/>
      <rect x="18" y="7" width="1" height="1" fill="#b8c8e8"/>
      <rect x="19" y="7" width="1" height="1" fill="#b8c8e8"/>
      <rect x="20" y="7" width="1" height="1" fill="#b8c8e8"/>
      <rect x="21" y="7" width="1" height="1" fill="#b8c8e8"/>
      <rect x="22" y="7" width="1" height="1" fill="#f8e040"/>
      <rect x="23" y="7" width="1" height="1" fill="#181828"/>
      <rect x="24" y="7" width="1" height="1" fill="#fffef8"/>
      <rect x="25" y="7" width="1" height="1" fill="#181828"/>
      <rect x="26" y="7" width="1" height="1" fill="#b8c8e8"/>
      <rect x="14" y="8" width="1" height="1" fill="#181828"/>
      <rect x="15" y="8" width="1" height="1" fill="#b8c8e8"/>
      <rect x="16" y="8" width="1" height="1" fill="#b8c8e8"/>
      <rect x="17" y="8" width="1" height="1" fill="#b8c8e8"/>
      <rect x="18" y="8" width="1" height="1" fill="#8898c8"/>
      <rect x="19" y="8" width="1" height="1" fill="#b8c8e8"/>
      <rect x="20" y="8" width="1" height="1" fill="#b8c8e8"/>
      <rect x="21" y="8" width="1" height="1" fill="#8898c8"/>
      <rect x="22" y="8" width="1" height="1" fill="#b8c8e8"/>
      <rect x="23" y="8" width="1" height="1" fill="#b8c8e8"/>
      <rect x="24" y="8" width="1" height="1" fill="#b8c8e8"/>
      <rect x="25" y="8" width="1" height="1" fill="#181828"/>
      <rect x="14" y="9" width="1" height="1" fill="#181828"/>
      <rect x="15" y="9" width="1" height="1" fill="#b8c8e8"/>
      <rect x="16" y="9" width="1" height="1" fill="#b8c8e8"/>
      <rect x="17" y="9" width="1" height="1" fill="#b8c8e8"/>
      <rect x="18" y="9" width="1" height="1" fill="#b8c8e8"/>
      <rect x="19" y="9" width="1" height="1" fill="#6868a0"/>
      <rect x="20" y="9" width="1" height="1" fill="#6868a0"/>
      <rect x="21" y="9" width="1" height="1" fill="#b8c8e8"/>
      <rect x="22" y="9" width="1" height="1" fill="#b8c8e8"/>
      <rect x="23" y="9" width="1" height="1" fill="#b8c8e8"/>
      <rect x="24" y="9" width="1" height="1" fill="#b8c8e8"/>
      <rect x="25" y="9" width="1" height="1" fill="#181828"/>
      <rect x="14" y="10" width="1" height="1" fill="#181828"/>
      <rect x="15" y="10" width="1" height="1" fill="#181828"/>
      <rect x="16" y="10" width="1" height="1" fill="#181828"/>
      <rect x="17" y="10" width="1" height="1" fill="#181828"/>
      <rect x="18" y="10" width="1" height="1" fill="#8898c8"/>
      <rect x="19" y="10" width="1" height="1" fill="#d0d8f0"/>
      <rect x="20" y="10" width="1" height="1" fill="#d0d8f0"/>
      <rect x="21" y="10" width="1" height="1" fill="#8898c8"/>
      <rect x="22" y="10" width="1" height="1" fill="#181828"/>
      <rect x="23" y="10" width="1" height="1" fill="#181828"/>
      <rect x="24" y="10" width="1" height="1" fill="#181828"/>
      <rect x="25" y="10" width="1" height="1" fill="#181828"/>
      <rect x="17" y="11" width="1" height="1" fill="#181828"/>
      <rect x="18" y="11" width="1" height="1" fill="#b8c8e8"/>
      <rect x="21" y="11" width="1" height="1" fill="#b8c8e8"/>
      <rect x="22" y="11" width="1" height="1" fill="#181828"/>
      <rect x="18" y="12" width="1" height="1" fill="#b8c8e8"/>
      <rect x="21" y="12" width="1" height="1" fill="#8898c8"/>
      <rect x="11" y="13" width="1" height="1" fill="#181828"/>
      <rect x="12" y="13" width="1" height="1" fill="#1a1830"/>
      <rect x="14" y="13" width="1" height="1" fill="#181828"/>
      <rect x="15" y="13" width="1" height="1" fill="#181828"/>
      <rect x="16" y="13" width="1" height="1" fill="#181828"/>
      <rect x="17" y="13" width="1" height="1" fill="#181828"/>
      <rect x="18" y="13" width="1" height="1" fill="#181828"/>
      <rect x="19" y="13" width="1" height="1" fill="#181828"/>
      <rect x="20" y="13" width="1" height="1" fill="#181828"/>
      <rect x="21" y="13" width="1" height="1" fill="#181828"/>
      <rect x="22" y="13" width="1" height="1" fill="#181828"/>
      <rect x="23" y="13" width="1" height="1" fill="#181828"/>
      <rect x="24" y="13" width="1" height="1" fill="#181828"/>
      <rect x="25" y="13" width="1" height="1" fill="#181828"/>
      <rect x="28" y="13" width="1" height="1" fill="#1a1830"/>
      <rect x="29" y="13" width="1" height="1" fill="#181828"/>
      <rect x="11" y="14" width="1" height="1" fill="#181828"/>
      <rect x="12" y="14" width="1" height="1" fill="#1a1830"/>
      <rect x="14" y="14" width="1" height="1" fill="#181828"/>
      <rect x="15" y="14" width="1" height="1" fill="#b8c8e8"/>
      <rect x="16" y="14" width="1" height="1" fill="#b8c8e8"/>
      <rect x="17" y="14" width="1" height="1" fill="#b8c8e8"/>
      <rect x="18" y="14" width="1" height="1" fill="#b8c8e8"/>
      <rect x="19" y="14" width="1" height="1" fill="#b8c8e8"/>
      <rect x="20" y="14" width="1" height="1" fill="#b8c8e8"/>
      <rect x="21" y="14" width="1" height="1" fill="#b8c8e8"/>
      <rect x="22" y="14" width="1" height="1" fill="#b8c8e8"/>
      <rect x="23" y="14" width="1" height="1" fill="#b8c8e8"/>
      <rect x="24" y="14" width="1" height="1" fill="#b8c8e8"/>
      <rect x="25" y="14" width="1" height="1" fill="#181828"/>
      <rect x="28" y="14" width="1" height="1" fill="#1a1830"/>
      <rect x="29" y="14" width="1" height="1" fill="#181828"/>
      <rect x="14" y="15" width="1" height="1" fill="#181828"/>
      <rect x="15" y="15" width="1" height="1" fill="#2a2848"/>
      <rect x="16" y="15" width="1" height="1" fill="#b8c8e8"/>
      <rect x="17" y="15" width="1" height="1" fill="#b8c8e8"/>
      <rect x="18" y="15" width="1" height="1" fill="#b8c8e8"/>
      <rect x="19" y="15" width="1" height="1" fill="#b8c8e8"/>
      <rect x="20" y="15" width="1" height="1" fill="#b8c8e8"/>
      <rect x="21" y="15" width="1" height="1" fill="#b8c8e8"/>
      <rect x="22" y="15" width="1" height="1" fill="#b8c8e8"/>
      <rect x="23" y="15" width="1" height="1" fill="#b8c8e8"/>
      <rect x="24" y="15" width="1" height="1" fill="#b8c8e8"/>
      <rect x="25" y="15" width="1" height="1" fill="#181828"/>
      <rect x="26" y="15" width="1" height="1" fill="#2a2848"/>
      <rect x="28" y="15" width="1" height="1" fill="#1a1830"/>
      <rect x="29" y="15" width="1" height="1" fill="#181828"/>
      <rect x="12" y="16" width="1" height="1" fill="#1a1830"/>
      <rect x="14" y="16" width="1" height="1" fill="#181828"/>
      <rect x="15" y="16" width="1" height="1" fill="#b8c8e8"/>
      <rect x="16" y="16" width="1" height="1" fill="#1a1830"/>
      <rect x="17" y="16" width="1" height="1" fill="#b8c8e8"/>
      <rect x="18" y="16" width="1" height="1" fill="#b8c8e8"/>
      <rect x="19" y="16" width="1" height="1" fill="#b8c8e8"/>
      <rect x="20" y="16" width="1" height="1" fill="#b8c8e8"/>
      <rect x="21" y="16" width="1" height="1" fill="#b8c8e8"/>
      <rect x="22" y="16" width="1" height="1" fill="#b8c8e8"/>
      <rect x="23" y="16" width="1" height="1" fill="#b8c8e8"/>
      <rect x="24" y="16" width="1" height="1" fill="#b8c8e8"/>
      <rect x="25" y="16" width="1" height="1" fill="#1a1830"/>
      <rect x="28" y="16" width="1" height="1" fill="#1a1830"/>
      <rect x="29" y="16" width="1" height="1" fill="#181828"/>
      <rect x="11" y="17" width="1" height="1" fill="#181828"/>
      <rect x="12" y="17" width="1" height="1" fill="#1a1830"/>
      <rect x="14" y="17" width="1" height="1" fill="#181828"/>
      <rect x="15" y="17" width="1" height="1" fill="#b8c8e8"/>
      <rect x="16" y="17" width="1" height="1" fill="#b8c8e8"/>
      <rect x="17" y="17" width="1" height="1" fill="#6868a0"/>
      <rect x="18" y="17" width="1" height="1" fill="#b8c8e8"/>
      <rect x="19" y="17" width="1" height="1" fill="#b8c8e8"/>
      <rect x="20" y="17" width="1" height="1" fill="#b8c8e8"/>
      <rect x="21" y="17" width="1" height="1" fill="#b8c8e8"/>
      <rect x="22" y="17" width="1" height="1" fill="#6868a0"/>
      <rect x="23" y="17" width="1" height="1" fill="#b8c8e8"/>
      <rect x="24" y="17" width="1" height="1" fill="#b8c8e8"/>
      <rect x="25" y="17" width="1" height="1" fill="#181828"/>
      <rect x="28" y="17" width="1" height="1" fill="#1a1830"/>
      <rect x="29" y="17" width="1" height="1" fill="#181828"/>
      <rect x="11" y="18" width="1" height="1" fill="#181828"/>
      <rect x="12" y="18" width="1" height="1" fill="#1a1830"/>
      <rect x="14" y="18" width="1" height="1" fill="#181828"/>
      <rect x="15" y="18" width="1" height="1" fill="#b8c8e8"/>
      <rect x="16" y="18" width="1" height="1" fill="#b8c8e8"/>
      <rect x="17" y="18" width="1" height="1" fill="#b8c8e8"/>
      <rect x="18" y="18" width="1" height="1" fill="#b8c8e8"/>
      <rect x="19" y="18" width="1" height="1" fill="#b8c8e8"/>
      <rect x="20" y="18" width="1" height="1" fill="#b8c8e8"/>
      <rect x="21" y="18" width="1" height="1" fill="#b8c8e8"/>
      <rect x="22" y="18" width="1" height="1" fill="#b8c8e8"/>
      <rect x="23" y="18" width="1" height="1" fill="#b8c8e8"/>
      <rect x="24" y="18" width="1" height="1" fill="#b8c8e8"/>
      <rect x="25" y="18" width="1" height="1" fill="#181828"/>
      <rect x="28" y="18" width="1" height="1" fill="#1a1830"/>
      <rect x="29" y="18" width="1" height="1" fill="#181828"/>
      <rect x="11" y="19" width="1" height="1" fill="#181828"/>
      <rect x="12" y="19" width="1" height="1" fill="#1a1830"/>
      <rect x="14" y="19" width="1" height="1" fill="#181828"/>
      <rect x="15" y="19" width="1" height="1" fill="#b8c8e8"/>
      <rect x="16" y="19" width="1" height="1" fill="#b8c8e8"/>
      <rect x="17" y="19" width="1" height="1" fill="#b8c8e8"/>
      <rect x="18" y="19" width="1" height="1" fill="#b8c8e8"/>
      <rect x="19" y="19" width="1" height="1" fill="#b8c8e8"/>
      <rect x="20" y="19" width="1" height="1" fill="#b8c8e8"/>
      <rect x="21" y="19" width="1" height="1" fill="#b8c8e8"/>
      <rect x="22" y="19" width="1" height="1" fill="#b8c8e8"/>
      <rect x="23" y="19" width="1" height="1" fill="#b8c8e8"/>
      <rect x="24" y="19" width="1" height="1" fill="#b8c8e8"/>
      <rect x="25" y="19" width="1" height="1" fill="#181828"/>
      <rect x="28" y="19" width="1" height="1" fill="#1a1830"/>
      <rect x="29" y="19" width="1" height="1" fill="#181828"/>
      <rect x="11" y="20" width="1" height="1" fill="#181828"/>
      <rect x="12" y="20" width="1" height="1" fill="#1a1830"/>
      <rect x="14" y="20" width="1" height="1" fill="#181828"/>
      <rect x="15" y="20" width="1" height="1" fill="#181828"/>
      <rect x="16" y="20" width="1" height="1" fill="#181828"/>
      <rect x="17" y="20" width="1" height="1" fill="#181828"/>
      <rect x="18" y="20" width="1" height="1" fill="#181828"/>
      <rect x="19" y="20" width="1" height="1" fill="#181828"/>
      <rect x="20" y="20" width="1" height="1" fill="#181828"/>
      <rect x="21" y="20" width="1" height="1" fill="#181828"/>
      <rect x="22" y="20" width="1" height="1" fill="#181828"/>
      <rect x="23" y="20" width="1" height="1" fill="#181828"/>
      <rect x="24" y="20" width="1" height="1" fill="#181828"/>
      <rect x="25" y="20" width="1" height="1" fill="#181828"/>
      <rect x="28" y="20" width="1" height="1" fill="#1a1830"/>
      <rect x="29" y="20" width="1" height="1" fill="#181828"/>
      <rect x="11" y="21" width="1" height="1" fill="#181828"/>
      <rect x="12" y="21" width="1" height="1" fill="#1a1830"/>
      <rect x="28" y="21" width="1" height="1" fill="#1a1830"/>
      <rect x="29" y="21" width="1" height="1" fill="#181828"/>
      <rect x="11" y="22" width="1" height="1" fill="#181828"/>
      <rect x="12" y="22" width="1" height="1" fill="#1a1830"/>
      <rect x="28" y="22" width="1" height="1" fill="#1a1830"/>
      <rect x="29" y="22" width="1" height="1" fill="#181828"/>
      </g>
      <g>
      <rect x="7" y="15" width="1" height="1" fill="#a0a0a8"/>
      <rect x="8" y="15" width="1" height="1" fill="#a0a0a8"/>
      <rect x="9" y="15" width="1" height="1" fill="#b8c8e8"/>
      <rect x="10" y="15" width="1" height="1" fill="#181828"/>
      <rect x="11" y="15" width="1" height="1" fill="#1a1830"/>
      <rect x="12" y="15" width="1" height="1" fill="#1a1830"/>
      <rect x="6" y="16" width="1" height="1" fill="#181828"/>
      <rect x="7" y="16" width="1" height="1" fill="#484848"/>
      <rect x="8" y="16" width="1" height="1" fill="#6a4830"/>
      <rect x="9" y="16" width="1" height="1" fill="#181828"/>
      <rect x="10" y="16" width="1" height="1" fill="#b8c8e8"/>
      <rect x="11" y="16" width="1" height="1" fill="#181828"/>
      </g>
      <g>
      <rect x="15" y="21" width="1" height="1" fill="#181828"/>
      <rect x="14" y="22" width="1" height="1" fill="#181828"/>
      <rect x="15" y="22" width="1" height="1" fill="#2a2848"/>
      <rect x="13" y="23" width="1" height="1" fill="#181828"/>
      <rect x="14" y="23" width="1" height="1" fill="#1a1830"/>
      <rect x="12" y="24" width="1" height="1" fill="#181828"/>
      <rect x="13" y="24" width="1" height="1" fill="#8898c8"/>
      <rect x="12" y="25" width="1" height="1" fill="#1a1830"/>
      <rect x="11" y="26" width="1" height="1" fill="#181828"/>
      <rect x="12" y="26" width="1" height="1" fill="#181828"/>
      <rect x="13" y="26" width="1" height="1" fill="#181828"/>
      </g>
      <g>
      <rect x="24" y="21" width="1" height="1" fill="#181828"/>
      <rect x="24" y="22" width="1" height="1" fill="#2a2848"/>
      <rect x="25" y="22" width="1" height="1" fill="#181828"/>
      <rect x="25" y="23" width="1" height="1" fill="#1a1830"/>
      <rect x="26" y="23" width="1" height="1" fill="#181828"/>
      <rect x="26" y="24" width="1" height="1" fill="#8898c8"/>
      <rect x="27" y="24" width="1" height="1" fill="#181828"/>
      <rect x="27" y="25" width="1" height="1" fill="#1a1830"/>
      <rect x="27" y="26" width="1" height="1" fill="#181828"/>
      <rect x="28" y="26" width="1" height="1" fill="#181828"/>
      <rect x="29" y="26" width="1" height="1" fill="#181828"/>
      </g>
    </g>
  </g>
</svg>
