<svg xmlns="http://www.w3.org/2000/svg" viewBox="0 0 400 400" shape-rendering="crispEdges">
  <defs>
    <style></style>
  </defs>
  <g transform="scale(10)">
    <rect width="40" height="34" fill="#2a2018"/>
    <rect y="34" width="40" height="6" fill="#1a1008"/>
    <g>
      <rect x="6" y="4" width="1" height="1" fill="#f0a030"/>
    </g>
    <g>
      <rect x="33" y="7" width="1" height="1" fill="#f0a030"/>
    </g>
    <g class="scene">
      <g>
      <rect x="14" y="2" width="1" height="1" fill="#181828"/>
      <rect x="15" y="2" width="1" height="1" fill="#2a3848"/>
      <rect x="16" y="2" width="1" height="1" fill="#2a3848"/>
      <rect x="17" y="2" width="1" height="1" fill="#2a3848"/>
      <rect x="18" y="2" width="1" height="1" fill="#2a3848"/>
      <rect x="19" y="2" width="1" height="1" fill="#2a3848"/>
      <rect x="20" y="2" width="1" height="1" fill="#2a3848"/>
      <rect x="21" y="2" width="1" height="1" fill="#2a3848"/>
      <rect x="22" y="2" width="1" height="1" fill="#2a3848"/>
      <rect x="23" y="2" width="1" height="1" fill="#2a3848"/>
      <rect x="24" y="2" width="1" height="1" fill="#2a3848"/>
      <rect x="25" y="2" width="1" height="1" fill="#181828"/>
      <rect x="13" y="3" width="1" height="1" fill="#181828"/>
      <rect x="14" y="3" width="1" height="1" fill="#2a3848"/>
      <rect x="24" y="3" width="1" height="1" fill="#2a3848"/>
      <rect x="25" y="3" width="1" height="1" fill="#2a3848"/>
      <rect x="26" y="3" width="1" height="1" fill="#181828"/>
      <rect x="12" y="4" width="1" height="1" fill="#181828"/>
      <rect x="13" y="4" width="1" height="1" fill="#485868"/>
      <rect x="25" y="4" width="1" height="1" fill="#485868"/>
      <rect x="26" y="4" width="1" height="1" fill="#485868"/>
      <rect x="27" y="4" width="1" height="1" fill="#181828"/>
      <rect x="11" y="5" width="1" height="1" fill="#181828"/>
      <rect x="12" y="5" width="1" height="1" fill="#485868"/>
      <rect x="26" y="5" width="1" height="1" fill="#485868"/>
      <rect x="27" y="5" width="1" height="1" fill="#485868"/>
      <rect x="28" y="5" width="1" height="1" fill="#181828"/>
      <rect x="10" y="6" width="1" height="1" fill="#181828"/>
      <rect x="11" y="6" width="1" height="1" fill="#485868"/>
      <rect x="27" y="6" width="1" height="1" fill="#485868"/>
      <rect x="28" y="6" width="1" height="1" fill="#485868"/>
      <rect x="29" y="6" width="1" height="1" fill="#181828"/>
      <rect x="10" y="7" width="1" height="1" fill="#181828"/>
      <rect x="11" y="7" width="1" height="1" fill="#c84838"/>
      <rect x="28" y="7" width="1" height="1" fill="#c84838"/>
      <rect x="29" y="7" width="1" height="1" fill="#181828"/>
      <rect x="13" y="8" width="1" height="1" fill="#181828"/>
      <rect x="14" y="8" width="1" height="1" fill="#181828"/>
      <rect x="15" y="8" width="1" height="1" fill="#181828"/>
      <rect x="16" y="8" width="1" height="1" fill="#181828"/>
      <rect x="17" y="8" width="1" height="1" fill="#181828"/>
      <rect x="18" y="8" width="1" height="1" fill="#181828"/>
      <rect x="19" y="8" width="1" height="1" fill="#181828"/>
      <rect x="20" y="8" width="1" height="1" fill="#181828"/>
      <rect x="21" y="8" width="1" height="1" fill="#181828"/>
      <rect x="22" y="8" width="1" height="1" fill="#181828"/>
      <rect x="23" y="8" width="1" height="1" fill="#181828"/>
      <rect x="24" y="8" width="1" height="1" fill="#181828"/>
      <rect x="25" y="8" width="1" height="1" fill="#181828"/>
      <rect x="26" y="8" width="1" height="1" fill="#181828"/>
      <rect x="13" y="9" width="1" height="1" fill="#181828"/>
      <rect x="14" y="9" width="1" height="1" fill="#d8c8b0"/>
      <rect x="15" y="9" width="1" height="1" fill="#f8e040"/>
      <rect x="16" y="9" width="1" height="1" fill="#181828"/>
      <rect x="17" y="9" width="1" height="1" fill="#d8c8b0"/>
      <rect x="18" y="9" width="1" height="1" fill="#d8c8b0"/>
      <rect x="19" y="9" width="1" height="1" fill="#d8c8b0"/>
      <rect x="20" y="9" width="1" height="1" fill="#d8c8b0"/>
      <rect x="21" y="9" width="1" height="1" fill="#d8c8b0"/>
      <rect x="22" y="9" width="1" height="1" fill="#d8c8b0"/>
      <rect x="23" y="9" width="1" height="1" fill="#f8e040"/>
      <rect x="24" y="9" width="1" height="1" fill="#181828"/>
      <rect x="25" y="9" width="1" height="1" fill="#d8c8b0"/>
      <rect x="26" y="9" width="1" height="1" fill="#181828"/>
      <rect x="13" y="10" width="1" height="1" fill="#181828"/>
      <rect x="14" y="10" width="1" height="1" fill="#d8c8b0"/>
      <rect x="15" y="10" width="1" height="1" fill="#d8c8b0"/>
      <rect x="16" y="10" width="1" height="1" fill="#d8c8b0"/>
      <rect x="17" y="10" width="1" height="1" fill="#887860"/>
      <rect x="18" y="10" width="1" height="1" fill="#d8c8b0"/>
      <rect x="19" y="10" width="1" height="1" fill="#d8c8b0"/>
      <rect x="20" y="10" width="1" height="1" fill="#d8c8b0"/>
      <rect x="21" y="10" width="1" height="1" fill="#d8c8b0"/>
      <rect x="22" y="10" width="1" height="1" fill="#887860"/>
      <rect x="23" y="10" width="1" height="1" fill="#d8c8b0"/>
      <rect x="24" y="10" width="1" height="1" fill="#d8c8b0"/>
      <rect x="25" y="10" width="1" height="1" fill="#d8c8b0"/>
      <rect x="26" y="10" width="1" height="1" fill="#181828"/>
      <rect x="13" y="11" width="1" height="1" fill="#181828"/>
      <rect x="14" y="11" width="1" height="1" fill="#d8c8b0"/>
      <rect x="15" y="11" width="1" height="1" fill="#d8c8b0"/>
      <rect x="16" y="11" width="1" height="1" fill="#d8c8b0"/>
      <rect x="17" y="11" width="1" height="1" fill="#d8c8b0"/>
      <rect x="18" y="11" width="1" height="1" fill="#b8a088"/>
      <rect x="19" y="11" width="1" height="1" fill="#d8c8b0"/>
      <rect x="20" y="11" width="1" height="1" fill="#d8c8b0"/>
      <rect x="21" y="11" width="1" height="1" fill="#b8a088"/>
      <rect x="22" y="11" width="1" height="1" fill="#d8c8b0"/>
      <rect x="23" y="11" width="1" height="1" fill="#d8c8b0"/>
      <rect x="24" y="11" width="1" height="1" fill="#d8c8b0"/>
      <rect x="25" y="11" width="1" height="1" fill="#d8c8b0"/>
      <rect x="26" y="11" width="1" height="1" fill="#181828"/>
      <rect x="13" y="12" width="1" height="1" fill="#181828"/>
      <rect x="14" y="12" width="1" height="1" fill="#d8c8b0"/>
      <rect x="15" y="12" width="1" height="1" fill="#d8c8b0"/>
      <rect x="16" y="12" width="1" height="1" fill="#d8c8b0"/>
      <rect x="17" y="12" width="1" height="1" fill="#d8c8b0"/>
      <rect x="18" y="12" width="1" height="1" fill="#d8c8b0"/>
      <rect x="19" y="12" width="1" height="1" fill="#f0e8d8"/>
      <rect x="20" y="12" width="1" height="1" fill="#f0e8d8"/>
      <rect x="21" y="12" width="1" height="1" fill="#d8c8b0"/>
      <rect x="22" y="12" width="1" height="1" fill="#d8c8b0"/>
      <rect x="23" y="12" width="1" height="1" fill="#d8c8b0"/>
      <rect x="24" y="12" width="1" height="1" fill="#d8c8b0"/>
      <rect x="25" y="12" width="1" height="1" fill="#d8c8b0"/>
      <rect x="26" y="12" width="1" height="1" fill="#181828"/>
      <rect x="13" y="13" width="1" height="1" fill="#181828"/>
      <rect x="14" y="13" width="1" height="1" fill="#181828"/>
      <rect x="15" y="13" width="1" height="1" fill="#181828"/>
      <rect x="16" y="13" width="1" height="1" fill="#181828"/>
      <rect x="17" y="13" width="1" height="1" fill="#181828"/>
      <rect x="18" y="13" width="1" height="1" fill="#181828"/>
      <rect x="19" y="13" width="1" height="1" fill="#181828"/>
      <rect x="20" y="13" width="1" height="1" fill="#181828"/>
      <rect x="21" y="13" width="1" height="1" fill="#181828"/>
      <rect x="22" y="13" width="1" height="1" fill="#181828"/>
      <rect x="23" y="13" width="1" height="1" fill="#181828"/>
      <rect x="24" y="13" width="1" height="1" fill="#181828"/>
      <rect x="25" y="13" width="1" height="1" fill="#181828"/>
      <rect x="26" y="13" width="1" height="1" fill="#181828"/>
      <rect x="12" y="14" width="1" height="1" fill="#181828"/>
      <rect x="13" y="14" width="1" height="1" fill="#181828"/>
      <rect x="14" y="14" width="1" height="1" fill="#181828"/>
      <rect x="15" y="14" width="1" height="1" fill="#181828"/>
      <rect x="16" y="14" width="1" height="1" fill="#181828"/>
      <rect x="17" y="14" width="1" height="1" fill="#181828"/>
      <rect x="18" y="14" width="1" height="1" fill="#181828"/>
      <rect x="19" y="14" width="1" height="1" fill="#181828"/>
      <rect x="20" y="14" width="1" height="1" fill="#181828"/>
      <rect x="21" y="14" width="1" height="1" fill="#181828"/>
      <rect x="22" y="14" width="1" height="1" fill="#181828"/>
      <rect x="23" y="14" width="1" height="1" fill="#181828"/>
      <rect x="24" y="14" width="1" height="1" fill="#181828"/>
      <rect x="25" y="14" width="1" height="1" fill="#181828"/>
      <rect x="12" y="15" width="1" height="1" fill="#181828"/>
      <rect x="13" y="15" width="1" height="1" fill="#181828"/>
      <rect x="14" y="15" width="1" height="1" fill="#283858"/>
      <rect x="15" y="15" width="1" height="1" fill="#1a2840"/>
      <rect x="16" y="15" width="1" height="1" fill="#d8c8b0"/>
      <rect x="17" y="15" width="1" height="1" fill="#d8c8b0"/>
      <rect x="18" y="15" width="1" height="1" fill="#d8c8b0"/>
      <rect x="19" y="15" width="1" height="1" fill="#d8c8b0"/>
      <rect x="20" y="15" width="1" height="1" fill="#d8c8b0"/>
      <rect x="21" y="15" width="1" height="1" fill="#d8c8b0"/>
      <rect x="22" y="15" width="1" height="1" fill="#d8c8b0"/>
      <rect x="23" y="15" width="1" height="1" fill="#d8c8b0"/>
      <rect x="24" y="15" width="1" height="1" fill="#d8c8b0"/>
      <rect x="25" y="15" width="1" height="1" fill="#1a2840"/>
      <rect x="26" y="15" width="1" height="1" fill="#283858"/>
      <rect x="27" y="15" width="1" height="1" fill="#181828"/>
      <rect x="12" y="16" width="1" height="1" fill="#181828"/>
      <rect x="13" y="16" width="1" height="1" fill="#181828"/>
      <rect x="14" y="16" width="1" height="1" fill="#283858"/>
      <rect x="15" y="16" width="1" height="1" fill="#d8c8b0"/>
      <rect x="16" y="16" width="1" height="1" fill="#d8c8b0"/>
      <rect x="17" y="16" width="1" height="1" fill="#c84838"/>
      <rect x="18" y="16" width="1" height="1" fill="#d8c8b0"/>
      <rect x="19" y="16" width="1" height="1" fill="#d8c8b0"/>
      <rect x="20" y="16" width="1" height="1" fill="#d8c8b0"/>
      <rect x="21" y="16" width="1" height="1" fill="#d8c8b0"/>
      <rect x="22" y="16" width="1" height="1" fill="#d8c8b0"/>
      <rect x="23" y="16" width="1" height="1" fill="#c84838"/>
      <rect x="24" y="16" width="1" height="1" fill="#d8c8b0"/>
      <rect x="25" y="16" width="1" height="1" fill="#d8c8b0"/>
      <rect x="26" y="16" width="1" height="1" fill="#283858"/>
      <rect x="27" y="16" width="1" height="1" fill="#181828"/>
      <rect x="12" y="17" width="1" height="1" fill="#181828"/>
      <rect x="13" y="17" width="1" height="1" fill="#181828"/>
      <rect x="14" y="17" width="1" height="1" fill="#283858"/>
      <rect x="15" y="17" width="1" height="1" fill="#d8c8b0"/>
      <rect x="16" y="17" width="1" height="1" fill="#d8c8b0"/>
      <rect x="17" y="17" width="1" height="1" fill="#d8c8b0"/>
      <rect x="18" y="17" width="1" height="1" fill="#283858"/>
      <rect x="19" y="17" width="1" height="1" fill="#d8c8b0"/>
      <rect x="20" y="17" width="1" height="1" fill="#d8c8b0"/>
      <rect x="21" y="17" width="1" height="1" fill="#283858"/>
      <rect x="22" y="17" width="1" height="1" fill="#d8c8b0"/>
      <rect x="23" y="17" width="1" height="1" fill="#d8c8b0"/>
      <rect x="24" y="17" width="1" height="1" fill="#d8c8b0"/>
      <rect x="25" y="17" width="1" height="1" fill="#d8c8b0"/>
      <rect x="26" y="17" width="1" height="1" fill="#283858"/>
      <rect x="27" y="17" width="1" height="1" fill="#181828"/>
      <rect x="12" y="18" width="1" height="1" fill="#181828"/>
      <rect x="13" y="18" width="1" height="1" fill="#181828"/>
      <rect x="14" y="18" width="1" height="1" fill="#283858"/>
      <rect x="15" y="18" width="1" height="1" fill="#d8c8b0"/>
      <rect x="16" y="18" width="1" height="1" fill="#d8c8b0"/>
      <rect x="17" y="18" width="1" height="1" fill="#d8c8b0"/>
      <rect x="18" y="18" width="1" height="1" fill="#d8c8b0"/>
      <rect x="19" y="18" width="1" height="1" fill="#c84838"/>
      <rect x="20" y="18" width="1" height="1" fill="#c84838"/>
      <rect x="21" y="18" width="1" height="1" fill="#d8c8b0"/>
      <rect x="22" y="18" width="1" height="1" fill="#d8c8b0"/>
      <rect x="23" y="18" width="1" height="1" fill="#d8c8b0"/>
      <rect x="24" y="18" width="1" height="1" fill="#d8c8b0"/>
      <rect x="25" y="18" width="1" height="1" fill="#d8c8b0"/>
      <rect x="26" y="18" width="1" height="1" fill="#283858"/>
      <rect x="27" y="18" width="1" height="1" fill="#181828"/>
      <rect x="12" y="19" width="1" height="1" fill="#181828"/>
      <rect x="13" y="19" width="1" height="1" fill="#181828"/>
      <rect x="14" y="19" width="1" height="1" fill="#283858"/>
      <rect x="15" y="19" width="1" height="1" fill="#d8c8b0"/>
      <rect x="16" y="19" width="1" height="1" fill="#d8c8b0"/>
      <rect x="17" y="19" width="1" height="1" fill="#d8c8b0"/>
      <rect x="18" y="19" width="1" height="1" fill="#1a2840"/>
      <rect x="19" y="19" width="1" height="1" fill="#d8c8b0"/>
      <rect x="20" y="19" width="1" height="1" fill="#d8c8b0"/>
      <rect x="21" y="19" width="1" height="1" fill="#1a2840"/>
      <rect x="22" y="19" width="1" height="1" fill="#d8c8b0"/>
      <rect x="23" y="19" width="1" height="1" fill="#d8c8b0"/>
      <rect x="24" y="19" width="1" height="1" fill="#d8c8b0"/>
      <rect x="25" y="19" width="1" height="1" fill="#d8c8b0"/>
      <rect x="26" y="19" width="1" height="1" fill="#283858"/>
      <rect x="27" y="19" width="1" height="1" fill="#181828"/>
      <rect x="12" y="20" width="1" height="1" fill="#181828"/>
      <rect x="13" y="20" width="1" height="1" fill="#181828"/>
      <rect x="14" y="20" width="1" height="1" fill="#283858"/>
      <rect x="15" y="20" width="1" height="1" fill="#d8c8b0"/>
      <rect x="16" y="20" width="1" height="1" fill="#d8c8b0"/>
      <rect x="17" y="20" width="1" height="1" fill="#d8c8b0"/>
      <rect x="18" y="20" width="1" height="1" fill="#d8c8b0"/>
      <rect x="19" y="20" width="1" height="1" fill="#882820"/>
      <rect x="20" y="20" width="1" height="1" fill="#882820"/>
      <rect x="21" y="20" width="1" height="1" fill="#d8c8b0"/>
      <rect x="22" y="20" width="1" height="1" fill="#d8c8b0"/>
      <rect x="23" y="20" width="1" height="1" fill="#d8c8b0"/>
      <rect x="24" y="20" width="1" height="1" fill="#d8c8b0"/>
      <rect x="25" y="20" width="1" height="1" fill="#d8c8b0"/>
      <rect x="26" y="20" width="1" height="1" fill="#283858"/>
      <rect x="27" y="20" width="1" height="1" fill="#181828"/>
      <rect x="12" y="21" width="1" height="1" fill="#181828"/>
      <rect x="13" y="21" width="1" height="1" fill="#181828"/>
      <rect x="14" y="21" width="1" height="1" fill="#283858"/>
      <rect x="15" y="21" width="1" height="1" fill="#d8c8b0"/>
      <rect x="16" y="21" width="1" height="1" fill="#d8c8b0"/>
      <rect x="17" y="21" width="1" height="1" fill="#d8c8b0"/>
      <rect x="18" y="21" width="1" height="1" fill="#d8c8b0"/>
      <rect x="19" y="21" width="1" height="1" fill="#d8c8b0"/>
      <rect x="20" y="21" width="1" height="1" fill="#d8c8b0"/>
      <rect x="21" y="21" width="1" height="1" fill="#d8c8b0"/>
      <rect x="22" y="21" width="1" height="1" fill="#d8c8b0"/>
      <rect x="23" y="21" width="1" height="1" fill="#d8c8b0"/>
      <rect x="24" y="21" width="1" height="1" fill="#d8c8b0"/>
      <rect x="25" y="21" width="1" height="1" fill="#d8c8b0"/>
      <rect x="26" y="21" width="1" height="1" fill="#283858"/>
      <rect x="27" y="21" width="1" height="1" fill="#181828"/>
      <rect x="12" y="22" width="1" height="1" fill="#181828"/>
      <rect x="13" y="22" width="1" height="1" fill="#181828"/>
      <rect x="14" y="22" width="1" height="1" fill="#181828"/>
      <rect x="15" y="22" width="1" height="1" fill="#181828"/>
      <rect x="16" y="22" width="1" height="1" fill="#181828"/>
      <rect x="17" y="22" width="1" height="1" fill="#181828"/>
      <rect x="18" y="22" width="1" height="1" fill="#181828"/>
      <rect x="19" y="22" width="1" height="1" fill="#181828"/>
      <rect x="20" y="22" width="1" height="1" fill="#181828"/>
      <rect x="21" y="22" width="1" height="1" fill="#181828"/>
      <rect x="22" y="22" width="1" height="1" fill="#181828"/>
      <rect x="23" y="22" width="1" height="1" fill="#181828"/>
      <rect x="24" y="22" width="1" height="1" fill="#181828"/>
      <rect x="25" y="22" width="1" height="1" fill="#181828"/>
      <rect x="26" y="22" width="1" height="1" fill="#181828"/>
      <rect x="27" y="22" width="1" height="1" fill="#181828"/>
      </g>
      <g>
      <rect x="38" y="0" width="1" height="1" fill="#181828"/>
      <rect x="37" y="1" width="1" height="1" fill="#181828"/>
      <rect x="38" y="1" width="1" height="1" fill="#9098a0"/>
      <rect x="36" y="2" width="1" height="1" fill="#181828"/>
      <rect x="37" y="2" width="1" height="1" fill="#b0b8c0"/>
      <rect x="35" y="3" width="1" height="1" fill="#181828"/>
      <rect x="36" y="3" width="1" height="1" fill="#9098a0"/>
      <rect x="34" y="4" width="1" height="1" fill="#181828"/>
      <rect x="35" y="4" width="1" height="1" fill="#686e78"/>
      <rect x="33" y="5" width="1" height="1" fill="#181828"/>
      <rect x="34" y="5" width="1" height="1" fill="#9098a0"/>
      <rect x="32" y="6" width="1" height="1" fill="#181828"/>
      <rect x="33" y="6" width="1" height="1" fill="#b0b8c0"/>
      <rect x="31" y="7" width="1" height="1" fill="#181828"/>
      <rect x="32" y="7" width="1" height="1" fill="#9098a0"/>
      <rect x="30" y="8" width="1" height="1" fill="#181828"/>
      <rect x="31" y="8" width="1" height="1" fill="#b0b8c0"/>
      <rect x="29" y="9" width="1" height="1" fill="#181828"/>
      <rect x="30" y="9" width="1" height="1" fill="#9098a0"/>
      <rect x="28" y="10" width="1" height="1" fill="#181828"/>
      <rect x="29" y="10" width="1" height="1" fill="#686e78"/>
      <rect x="27" y="11" width="1" height="1" fill="#181828"/>
      <rect x="28" y="11" width="1" height="1" fill="#887860"/>
      <rect x="27" y="12" width="1" height="1" fill="#181828"/>
      <rect x="28" y="12" width="1" height="1" fill="#887860"/>
      <rect x="27" y="13" width="1" height="1" fill="#181828"/>
      <rect x="28" y="13" width="1" height="1" fill="#b8a088"/>
      <rect x="26" y="14" width="1" height="1" fill="#181828"/>
      <rect x="27" y="14" width="1" height="1" fill="#887860"/>
      </g>
      <g>
      <rect x="14" y="23" width="1" height="1" fill="#181828"/>
      <rect x="13" y="24" width="1" height="1" fill="#181828"/>
      <rect x="14" y="24" width="1" height="1" fill="#283858"/>
      <rect x="12" y="25" width="1" height="1" fill="#181828"/>
      <rect x="13" y="25" width="1" height="1" fill="#1a2840"/>
      <rect x="11" y="26" width="1" height="1" fill="#181828"/>
      <rect x="12" y="26" width="1" height="1" fill="#283858"/>
      <rect x="10" y="27" width="1" height="1" fill="#181828"/>
      <rect x="11" y="27" width="1" height="1" fill="#b8a088"/>
      <rect x="10" y="28" width="1" height="1" fill="#181828"/>
      <rect x="11" y="28" width="1" height="1" fill="#181828"/>
      <rect x="12" y="28" width="1" height="1" fill="#181828"/>
      <rect x="9" y="29" width="1" height="1" fill="#181828"/>
      <rect x="10" y="29" width="1" height="1" fill="#181828"/>
      <rect x="11" y="29" width="1" height="1" fill="#181828"/>
      </g>
      <g>
      <rect x="25" y="23" width="1" height="1" fill="#181828"/>
      <rect x="25" y="24" width="1" height="1" fill="#283858"/>
      <rect x="26" y="24" width="1" height="1" fill="#181828"/>
      <rect x="26" y="25" width="1" height="1" fill="#1a2840"/>
      <rect x="27" y="25" width="1" height="1" fill="#181828"/>
      <rect x="27" y="26" width="1" height="1" fill="#283858"/>
      <rect x="28" y="26" width="1" height="1" fill="#181828"/>
      <rect x="28" y="27" width="1" height="1" fill="#b8a088"/>
      <rect x="29" y="27" width="1" height="1" fill="#181828"/>
      <rect x="27" y="28" width="1" height="1" fill="#181828"/>
      <rect x="28" y="28" width="1" height="1" fill="#181828"/>
      <rect x="29" y="28" width="1" height="1" fill="#181828"/>
      <rect x="28" y="29" width="1" height="1" fill="#181828"/>
      <rect x="29" y="29" width="1" height="1" fill="#181828"/>
      <rect x="30" y="29" width="1" height="1" fill="#181828"/>
      </g>
    </g>
  </g>
</svg>
